<svg width="962" height="266" viewBox="0 0 962 266" fill="none" xmlns="http://www.w3.org/2000/svg">
<g clip-path="url(#clip0_12_2)">
<path d="M58.88 14.04V5.4H136V14.04L118.4 15.64C114.987 16.0667 112.96 16.92 112.32 18.2C111.68 19.48 111.36 23.8533 111.36 31.32V159.64C111.36 171.373 109.547 182.36 105.92 192.6C102.507 202.627 96.64 210.733 88.32 216.92C80 223.107 68.5867 226.2 54.08 226.2C46.6133 226.2 39.2533 224.92 32 222.36C24.96 219.8 18.88 215.213 13.76 208.6C8.64 201.773 5.33333 192.28 3.84 180.12L22.4 174.68C22.8267 185.987 24.5333 194.627 27.52 200.6C30.72 206.573 34.56 210.627 39.04 212.76C43.52 214.893 48.1067 215.96 52.8 215.96C58.7733 215.96 64 214.467 68.48 211.48C73.1733 208.28 76.8 202.84 79.36 195.16C82.1333 187.48 83.52 176.493 83.52 162.2V31.32C83.52 23.8533 83.2 19.48 82.56 18.2C81.92 16.92 79.8933 16.0667 76.48 15.64L58.88 14.04Z" fill="url(#paint0_linear_12_2)"/>
<g clip-path="url(#clip1_12_2)">
<path d="M68.4425 68.9671L85.1979 46.6836C85.628 46.1098 86.2647 45.7255 86.974 45.6085L120.485 40.0376C120.786 39.9875 121.099 39.9875 121.401 40.0376L154.911 45.6085C155.621 45.7255 156.257 46.1098 156.688 46.6836L173.443 68.9671C174.242 70.0311 174.175 71.513 173.287 72.499L123.02 128.208C122.49 128.793 121.736 129.132 120.943 129.132C120.15 129.132 119.396 128.798 118.865 128.208L68.5989 72.499C67.7053 71.5074 67.6383 70.0311 68.4425 68.9671ZM102.59 67.8529L120.943 118.197L139.295 67.8529H102.59ZM136.542 62.2821L120.943 46.7226L105.343 62.2821H136.542ZM112.805 46.9622L92.1514 50.3938L99.0378 60.6944L112.811 46.9622H112.805ZM142.848 60.6944L149.734 50.3938L129.08 46.9622L142.848 60.6944ZM147.919 63.1511L164.59 66.4769L154.588 53.1737L147.919 63.1511ZM145.087 68.2707L128.477 113.835L165.853 72.4099L145.087 68.2652V68.2707ZM96.7982 68.2707L76.0327 72.4155L113.408 113.84L96.7982 68.2763V68.2707ZM93.9666 63.1511L87.2979 53.1737L77.2949 66.4769L93.9666 63.1511Z" fill="url(#paint1_linear_12_2)"/>
</g>
<path d="M74.632 96.444V89.64H13.9V96.444L27.76 97.704C30.448 98.04 32.044 98.712 32.548 99.72C33.052 100.728 33.304 104.172 33.304 110.052V211.104C33.304 220.344 34.732 228.996 37.588 237.06C40.276 244.956 44.896 251.34 51.448 256.212C58 261.084 66.988 263.52 78.412 263.52C84.292 263.52 90.088 262.512 95.8 260.496C101.344 258.48 106.132 254.868 110.164 249.66C114.196 244.284 116.8 236.808 117.976 227.232L103.36 222.948C103.024 231.852 101.68 238.656 99.328 243.36C96.808 248.064 93.784 251.256 90.256 252.936C86.728 254.616 83.116 255.456 79.42 255.456C74.716 255.456 70.6 254.28 67.072 251.928C63.376 249.408 60.52 245.124 58.504 239.076C56.32 233.028 55.228 224.376 55.228 213.12V110.052C55.228 104.172 55.48 100.728 55.984 99.72C56.488 98.712 58.084 98.04 60.772 97.704L74.632 96.444Z" fill="url(#paint2_linear_12_2)"/>
<path d="M237.315 172.05C232.625 172.05 228.285 171.14 224.295 169.32C220.375 167.43 217.155 164.805 214.635 161.445L222.405 152.1C226.465 157.7 231.33 160.5 237 160.5C244.63 160.5 248.445 155.985 248.445 146.955V108.945H222.3V97.5H262.095V146.22C262.095 154.83 259.995 161.305 255.795 165.645C251.595 169.915 245.435 172.05 237.315 172.05ZM301.401 114.3C309.661 114.3 315.961 116.295 320.301 120.285C324.711 124.205 326.916 130.155 326.916 138.135V171H314.526V164.175C312.916 166.625 310.606 168.515 307.596 169.845C304.656 171.105 301.086 171.735 296.886 171.735C292.686 171.735 289.011 171.035 285.861 169.635C282.711 168.165 280.261 166.17 278.511 163.65C276.831 161.06 275.991 158.155 275.991 154.935C275.991 149.895 277.846 145.87 281.556 142.86C285.336 139.78 291.251 138.24 299.301 138.24H313.791V137.4C313.791 133.48 312.601 130.47 310.221 128.37C307.911 126.27 304.446 125.22 299.826 125.22C296.676 125.22 293.561 125.71 290.481 126.69C287.471 127.67 284.916 129.035 282.816 130.785L277.671 121.23C280.611 118.99 284.146 117.275 288.276 116.085C292.406 114.895 296.781 114.3 301.401 114.3ZM299.616 162.18C302.906 162.18 305.811 161.445 308.331 159.975C310.921 158.435 312.741 156.265 313.791 153.465V146.955H300.246C292.686 146.955 288.906 149.44 288.906 154.41C288.906 156.79 289.851 158.68 291.741 160.08C293.631 161.48 296.256 162.18 299.616 162.18ZM414.53 114.3C421.6 114.3 427.2 116.365 431.33 120.495C435.46 124.555 437.525 130.68 437.525 138.87V171H424.4V140.55C424.4 135.65 423.315 131.975 421.145 129.525C418.975 127.005 415.86 125.745 411.8 125.745C407.39 125.745 403.855 127.215 401.195 130.155C398.535 133.025 397.205 137.155 397.205 142.545V171H384.08V140.55C384.08 135.65 382.995 131.975 380.825 129.525C378.655 127.005 375.54 125.745 371.48 125.745C367 125.745 363.43 127.18 360.77 130.05C358.18 132.92 356.885 137.085 356.885 142.545V171H343.76V114.93H356.255V122.07C358.355 119.55 360.98 117.625 364.13 116.295C367.28 114.965 370.78 114.3 374.63 114.3C378.83 114.3 382.54 115.105 385.76 116.715C389.05 118.255 391.64 120.565 393.53 123.645C395.84 120.705 398.815 118.43 402.455 116.82C406.095 115.14 410.12 114.3 414.53 114.3ZM454.298 114.93H467.423V171H454.298V114.93ZM460.913 105.69C458.533 105.69 456.538 104.955 454.928 103.485C453.318 101.945 452.513 100.055 452.513 97.815C452.513 95.575 453.318 93.72 454.928 92.25C456.538 90.71 458.533 89.94 460.913 89.94C463.293 89.94 465.288 90.675 466.898 92.145C468.508 93.545 469.313 95.33 469.313 97.5C469.313 99.81 468.508 101.77 466.898 103.38C465.358 104.92 463.363 105.69 460.913 105.69ZM484.649 93.09H497.774V171H484.649V93.09ZM556.724 172.05C552.034 172.05 547.694 171.14 543.704 169.32C539.784 167.43 536.564 164.805 534.044 161.445L541.814 152.1C545.874 157.7 550.739 160.5 556.409 160.5C564.039 160.5 567.854 155.985 567.854 146.955V108.945H541.709V97.5H581.504V146.22C581.504 154.83 579.404 161.305 575.204 165.645C571.004 169.915 564.844 172.05 556.724 172.05ZM652.1 143.28C652.1 144.19 652.03 145.485 651.89 147.165H607.895C608.665 151.295 610.66 154.585 613.88 157.035C617.17 159.415 621.23 160.605 626.06 160.605C632.22 160.605 637.295 158.575 641.285 154.515L648.32 162.6C645.8 165.61 642.615 167.885 638.765 169.425C634.915 170.965 630.575 171.735 625.745 171.735C619.585 171.735 614.16 170.51 609.47 168.06C604.78 165.61 601.14 162.215 598.55 157.875C596.03 153.465 594.77 148.495 594.77 142.965C594.77 137.505 595.995 132.605 598.445 128.265C600.965 123.855 604.43 120.425 608.84 117.975C613.25 115.525 618.22 114.3 623.75 114.3C629.21 114.3 634.075 115.525 638.345 117.975C642.685 120.355 646.045 123.75 648.425 128.16C650.875 132.5 652.1 137.54 652.1 143.28ZM623.75 124.8C619.55 124.8 615.98 126.06 613.04 128.58C610.17 131.03 608.42 134.32 607.79 138.45H639.605C639.045 134.39 637.33 131.1 634.46 128.58C631.59 126.06 628.02 124.8 623.75 124.8ZM751.147 114.93L730.462 171H717.862L703.372 132.36L688.672 171H676.072L655.492 114.93H667.882L682.687 156.3L698.122 114.93H709.147L724.267 156.51L739.492 114.93H751.147ZM811.343 143.28C811.343 144.19 811.273 145.485 811.133 147.165H767.138C767.908 151.295 769.903 154.585 773.123 157.035C776.413 159.415 780.473 160.605 785.303 160.605C791.463 160.605 796.538 158.575 800.528 154.515L807.563 162.6C805.043 165.61 801.858 167.885 798.008 169.425C794.158 170.965 789.818 171.735 784.988 171.735C778.828 171.735 773.403 170.51 768.713 168.06C764.023 165.61 760.383 162.215 757.793 157.875C755.273 153.465 754.013 148.495 754.013 142.965C754.013 137.505 755.238 132.605 757.688 128.265C760.208 123.855 763.673 120.425 768.083 117.975C772.493 115.525 777.463 114.3 782.993 114.3C788.453 114.3 793.318 115.525 797.588 117.975C801.928 120.355 805.288 123.75 807.668 128.16C810.118 132.5 811.343 137.54 811.343 143.28ZM782.993 124.8C778.793 124.8 775.223 126.06 772.283 128.58C769.413 131.03 767.663 134.32 767.033 138.45H798.848C798.288 134.39 796.573 131.1 793.703 128.58C790.833 126.06 787.263 124.8 782.993 124.8ZM823.951 93.09H837.076V171H823.951V93.09ZM866.797 123.12C870.577 117.24 877.227 114.3 886.747 114.3V126.795C885.627 126.585 884.612 126.48 883.702 126.48C878.592 126.48 874.602 127.985 871.732 130.995C868.862 133.935 867.427 138.205 867.427 143.805V171H854.302V114.93H866.797V123.12ZM952.432 114.93L926.182 175.515C923.732 181.605 920.757 185.875 917.257 188.325C913.757 190.845 909.522 192.105 904.552 192.105C901.752 192.105 898.987 191.65 896.257 190.74C893.527 189.83 891.287 188.57 889.537 186.96L894.787 177.3C896.047 178.49 897.517 179.435 899.197 180.135C900.947 180.835 902.697 181.185 904.447 181.185C906.757 181.185 908.647 180.59 910.117 179.4C911.657 178.21 913.057 176.215 914.317 173.415L915.262 171.21L890.797 114.93H904.447L922.087 156.405L939.832 114.93H952.432Z" fill="url(#paint3_linear_12_2)"/>
</g>
<defs>
<linearGradient id="paint0_linear_12_2" x1="73.5" y1="-23" x2="73.5" y2="228" gradientUnits="userSpaceOnUse">
<stop stop-color="#AE8625"/>
<stop offset="1" stop-color="#EDC967"/>
</linearGradient>
<linearGradient id="paint1_linear_12_2" x1="120.941" y1="40" x2="120.941" y2="129.132" gradientUnits="userSpaceOnUse">
<stop stop-color="#C49E3D"/>
<stop offset="1" stop-color="#EDC967"/>
</linearGradient>
<linearGradient id="paint2_linear_12_2" x1="49" y1="70" x2="49" y2="263" gradientUnits="userSpaceOnUse">
<stop stop-color="#EDC967"/>
<stop offset="1" stop-color="#AE8625"/>
</linearGradient>
<linearGradient id="paint3_linear_12_2" x1="584.5" y1="69" x2="584.5" y2="197" gradientUnits="userSpaceOnUse">
<stop stop-color="#EDC967"/>
<stop offset="1" stop-color="#AE8625"/>
</linearGradient>
<clipPath id="clip0_12_2">
<rect width="962" height="266" fill="white"/>
</clipPath>
<clipPath id="clip1_12_2">
<rect width="53" height="89" fill="white" transform="matrix(-1 0 0 1 174 40)"/>
</clipPath>
</defs>
</svg>
